{
  "accessors": [
    {
      "bufferView": 1,
      "componentType": 5126,
      "count": 144,
      "max": [
        30.643339157104492,
        11.313929557800293,
        1
      ],
      "min": [
        -1.9355599880218506,
        -3.6788299083709717,
        -3.4153599739074707
      ],
      "type": "VEC3"
    },
    {
      "bufferView": 1,
      "byteOffset": 1728,
      "componentType": 5126,
      "count": 144,
      "max": [
        1,
        1,
        1
      ],
      "min": [
        -1,
        -1,
        -1
      ],
      "type": "VEC3"
    },
    {
      "bufferView": 0,
      "componentType": 5125,
      "count": 216,
      "max": [
        143
      ],
      "min": [
        0
      ],
      "type": "SCALAR"
    },
    {
      "bufferView": 1,
      "byteOffset": 3456,
      "componentType": 5126,
      "count": 168,
      "max": [
        29.562080383300781,
        -3.711590051651001,
        -0.93310999870300293
      ],
      "min": [
        -0.71227997541427612,
        -4.6612701416015625,
        -3.3981900215148926
      ],
      "type": "VEC3"
    },
    {
      "bufferView": 1,
      "byteOffset": 5472,
      "componentType": 5126,
      "count": 168,
      "max": [
        1,
        1,
        1
      ],
      "min": [
        -1,
        -1,
        -1
      ],
      "type": "VEC3"
    },
    {
      "bufferView": 0,
      "byteOffset": 864,
      "componentType": 5125,
      "count": 252,
      "max": [
        167
      ],
      "min": [
        0
      ],
      "type": "SCALAR"
    },
    {
      "bufferView": 1,
      "byteOffset": 7488,
      "componentType": 5126,
      "count": 24,
      "max": [
        1,
        1,
        1
      ],
      "min": [
        -1,
        -1,
        -1
      ],
      "type": "VEC3"
    },
    {
      "bufferView": 1,
      "byteOffset": 7776,
      "componentType": 5126,
      "count": 24,
      "max": [
        1,
        1,
        1
      ],
      "min": [
        -1,
        -1,
        -1
      ],
      "type": "VEC3"
    },
    {
      "bufferView": 0,
      "byteOffset": 1872,
      "componentType": 5125,
      "count": 36,
      "max": [
        23
      ],
      "min": [
        0
      ],
      "type": "SCALAR"
    },
    {
      "bufferView": 1,
      "byteOffset": 8064,
      "componentType": 5126,
      "count": 528,
      "max": [
        8.2220096588134766,
        1.705780029296875,
        0.43511000275611877
      ],
      "min": [
        -6.9081301689147949,
        -4.1565699577331543,
        -11.414560317993164
      ],
      "type": "VEC3"
    },
    {
      "bufferView": 1,
      "byteOffset": 14400,
      "componentType": 5126,
      "count": 528,
      "max": [
        0.96592593193054199,
        0.96592593193054199,
        1
      ],
      "min": [
        -0.96592593193054199,
        -0.96592593193054199,
        -1
      ],
      "type": "VEC3"
    },
    {
      "bufferView": 0,
      "byteOffset": 2016,
      "componentType": 5125,
      "count": 972,
      "max": [
        527
      ],
      "min": [
        0
      ],
      "type": "SCALAR"
    },
    {
      "bufferView": 1,
      "byteOffset": 20736,
      "componentType": 5126,
      "count": 5000,
      "max": [
        1.4597100019454956,
        1.3555400371551514,
        8.2218503952026367
      ],
      "min": [
        -0.44598999619483948,
        -1.253290057182312,
        -1.3809499740600586
      ],
      "type": "VEC3"
    },
    {
      "bufferView": 1,
      "byteOffset": 80736,
      "componentType": 5126,
      "count": 5000,
      "max": [
        0.99998301267623901,
        0.99998301267623901,
        1
      ],
      "min": [
        -0.99998301267623901,
        -0.99998301267623901,
        -0.99775362014770508
      ],
      "type": "VEC3"
    },
    {
      "bufferView": 0,
      "byteOffset": 5904,
      "componentType": 5125,
      "count": 29952,
      "max": [
        4999
      ],
      "min": [
        0
      ],
      "type": "SCALAR"
    },
    {
      "bufferView": 1,
      "byteOffset": 140736,
      "componentType": 5126,
      "count": 240,
      "max": [
        8.1932096481323242,
        0.43533000349998474,
        0.60636001825332642
      ],
      "min": [
        7.3060398101806641,
        -0.36601999402046204,
        -0.98681002855300903
      ],
      "type": "VEC3"
    },
    {
      "bufferView": 1,
      "byteOffset": 143616,
      "componentType": 5126,
      "count": 240,
      "max": [
        0.85939067602157593,
        0.89501667022705078,
        0.91975897550582886
      ],
      "min": [
        -0.85939407348632812,
        -0.89501667022705078,
        -0.84527963399887085
      ],
      "type": "VEC3"
    },
    {
      "bufferView": 0,
      "byteOffset": 125712,
      "componentType": 5125,
      "count": 1380,
      "max": [
        239
      ],
      "min": [
        0
      ],
      "type": "SCALAR"
    },
    {
      "bufferView": 1,
      "byteOffset": 146496,
      "componentType": 5126,
      "count": 78,
      "max": [
        0.3858799934387207,
        0.50967997312545776,
        1.0236599445343018
      ],
      "min": [
        -0.14538000524044037,
        -0.21322999894618988,
        1.0006599426269531
      ],
      "type": "VEC3"
    },
    {
      "bufferView": 1,
      "byteOffset": 147432,
      "componentType": 5126,
      "count": 78,
      "max": [
        1,
        1,
        1
      ],
      "min": [
        -1,
        -1,
        -1
      ],
      "type": "VEC3"
    },
    {
      "bufferView": 0,
      "byteOffset": 131232,
      "componentType": 5125,
      "count": 132,
      "max": [
        77
      ],
      "min": [
        0
      ],
      "type": "SCALAR"
    },
    {
      "bufferView": 1,
      "byteOffset": 148368,
      "componentType": 5126,
      "count": 96,
      "max": [
        6.6654500961303711,
        1.5999300479888916,
        -0.20103999972343445
      ],
      "min": [
        0.28819999098777771,
        -2.0104999542236328,
        -1.0302000045776367
      ],
      "type": "VEC3"
    },
    {
      "bufferView": 1,
      "byteOffset": 149520,
      "componentType": 5126,
      "count": 96,
      "max": [
        0.81558680534362793,
        0.81558680534362793,
        0.82542252540588379
      ],
      "min": [
        -0.81558680534362793,
        -0.81558680534362793,
        -0.72381794452667236
      ],
      "type": "VEC3"
    },
    {
      "bufferView": 0,
      "byteOffset": 131760,
      "componentType": 5125,
      "count": 552,
      "max": [
        95
      ],
      "min": [
        0
      ],
      "type": "SCALAR"
    }
  ],
  "asset": {
    "extras": {
      "author": "Eric Fan (https://sketchfab.com/ericfan1992)",
      "license": "CC-BY-4.0 (http://creativecommons.org/licenses/by/4.0/)",
      "source": "https://sketchfab.com/models/72993baf16b44a41968c39f4c5a366b2",
      "title": "Lemonade Stand"
    },
    "generator": "Sketchfab-3.18.7",
    "version": "2.0"
  },
  "bufferViews": [
    {
      "buffer": 0,
      "byteLength": 133968,
      "byteOffset": 0,
      "name": "floatBufferViews",
      "target": 34963
    },
    {
      "buffer": 0,
      "byteLength": 150672,
      "byteOffset": 133968,
      "byteStride": 12,
      "name": "floatBufferViews",
      "target": 34962
    }
  ],
  "buffers": [
    {
      "byteLength": 284640,
      "uri": "scene.bin"
    }
  ],
  "extensionsRequired": [
    "KHR_materials_pbrSpecularGlossiness"
  ],
  "extensionsUsed": [
    "KHR_materials_pbrSpecularGlossiness"
  ],
  "materials": [
    {
      "doubleSided": true,
      "emissiveFactor": [
        0,
        0,
        0
      ],
      "extensions": {
        "KHR_materials_pbrSpecularGlossiness": {
          "diffuseFactor": [
            0.53764915469999996,
            1,
            0.71998107430000002,
            1
          ],
          "glossinessFactor": 0.40000000000000002,
          "specularFactor": [
            0.050000000000000003,
            0.050000000000000003,
            0.050000000000000003
          ]
        }
      },
      "name": "material"
    },
    {
      "doubleSided": true,
      "emissiveFactor": [
        0,
        0,
        0
      ],
      "extensions": {
        "KHR_materials_pbrSpecularGlossiness": {
          "diffuseFactor": [
            0.7742708921,
            0.50103932620000002,
            0.26981785889999998,
            1
          ],
          "glossinessFactor": 0.40000000000000002,
          "specularFactor": [
            0.050000000000000003,
            0.050000000000000003,
            0.050000000000000003
          ]
        }
      },
      "name": "Board"
    },
    {
      "doubleSided": true,
      "emissiveFactor": [
        0,
        0,
        0
      ],
      "extensions": {
        "KHR_materials_pbrSpecularGlossiness": {
          "diffuseFactor": [
            0.87610840800000001,
            1,
            0.9061874151,
            1
          ],
          "glossinessFactor": 0.40000000000000002,
          "specularFactor": [
            0.050000000000000003,
            0.050000000000000003,
            0.050000000000000003
          ]
        }
      },
      "name": "Straws"
    },
    {
      "doubleSided": true,
      "emissiveFactor": [
        0,
        0,
        0
      ],
      "extensions": {
        "KHR_materials_pbrSpecularGlossiness": {
          "diffuseFactor": [
            0.80000007149999997,
            0.61451154949999998,
            0.11630232629999999,
            1
          ],
          "glossinessFactor": 0.40000000000000002,
          "specularFactor": [
            0.050000000000000003,
            0.050000000000000003,
            0.050000000000000003
          ]
        }
      },
      "name": "Lemon"
    },
    {
      "doubleSided": true,
      "emissiveFactor": [
        0,
        0,
        0
      ],
      "extensions": {
        "KHR_materials_pbrSpecularGlossiness": {
          "diffuseFactor": [
            1,
            1,
            1,
            1
          ],
          "glossinessFactor": 0.40000000000000002,
          "specularFactor": [
            0.050000000000000003,
            0.050000000000000003,
            0.050000000000000003
          ]
        }
      },
      "name": "Table"
    },
    {
      "doubleSided": true,
      "emissiveFactor": [
        0,
        0,
        0
      ],
      "extensions": {
        "KHR_materials_pbrSpecularGlossiness": {
          "diffuseFactor": [
            1,
            1,
            1,
            1
          ],
          "glossinessFactor": 0.40000000000000002,
          "specularFactor": [
            0.050000000000000003,
            0.050000000000000003,
            0.050000000000000003
          ]
        }
      },
      "name": "Planks"
    }
  ],
  "meshes": [
    {
      "name": "Stand_0",
      "primitives": [
        {
          "attributes": {
            "NORMAL": 1,
            "POSITION": 0
          },
          "indices": 2,
          "material": 4,
          "mode": 4
        }
      ]
    },
    {
      "name": "Stand_1",
      "primitives": [
        {
          "attributes": {
            "NORMAL": 4,
            "POSITION": 3
          },
          "indices": 5,
          "material": 5,
          "mode": 4
        }
      ]
    },
    {
      "name": "Sign_0",
      "primitives": [
        {
          "attributes": {
            "NORMAL": 7,
            "POSITION": 6
          },
          "indices": 8,
          "material": 4,
          "mode": 4
        }
      ]
    },
    {
      "name": "Containers_0",
      "primitives": [
        {
          "attributes": {
            "NORMAL": 10,
            "POSITION": 9
          },
          "indices": 11,
          "material": 0,
          "mode": 4
        }
      ]
    },
    {
      "name": "Lemon_0",
      "primitives": [
        {
          "attributes": {
            "NORMAL": 13,
            "POSITION": 12
          },
          "indices": 14,
          "material": 3,
          "mode": 4
        }
      ]
    },
    {
      "name": "Straws_0",
      "primitives": [
        {
          "attributes": {
            "NORMAL": 16,
            "POSITION": 15
          },
          "indices": 17,
          "material": 2,
          "mode": 4
        }
      ]
    },
    {
      "name": "Cuttingboard_0",
      "primitives": [
        {
          "attributes": {
            "NORMAL": 19,
            "POSITION": 18
          },
          "indices": 20,
          "material": 1,
          "mode": 4
        }
      ]
    },
    {
      "name": "Cups_0",
      "primitives": [
        {
          "attributes": {
            "NORMAL": 22,
            "POSITION": 21
          },
          "indices": 23,
          "material": 0,
          "mode": 4
        }
      ]
    }
  ],
  "nodes": [
    {
      "children": [
        1
      ],
      "name": "RootNode (gltf orientation matrix)",
      "rotation": [
        -0.70710678118654746,
        -0,
        -0,
        0.70710678118654757
      ]
    },
    {
      "children": [
        2
      ],
      "name": "RootNode (model correction matrix)"
    },
    {
      "children": [
        3,
        5,
        8,
        10,
        12,
        14,
        16,
        18
      ],
      "name": "Root"
    },
    {
      "children": [
        4
      ],
      "matrix": [
        -0.29086000000000006,
        0.95517000000000007,
        -0.05519000000000001,
        0,
        -0.77110000000000001,
        -0.19988000000000003,
        0.60452000000000006,
        0,
        0.56639000000000006,
        0.21839000000000003,
        0.7946700000000001,
        0,
        0.86777000000000015,
        1.00545,
        2.5400499999999999,
        1
      ],
      "name": "Lamp"
    },
    {
      "name": "Lamp"
    },
    {
      "children": [
        6,
        7
      ],
      "matrix": [
        0.059000000000000011,
        0,
        0,
        0,
        0,
        0.04454000000000001,
        0,
        0,
        0,
        0,
        0.81133,
        0,
        -0.84681000000000006,
        0.20040000000000002,
        1.7570600000000001,
        1
      ],
      "name": "Stand"
    },
    {
      "mesh": 0,
      "name": "Stand_0"
    },
    {
      "mesh": 1,
      "name": "Stand_1"
    },
    {
      "children": [
        9
      ],
      "matrix": [
        1.0519599999999998,
        0,
        0,
        0,
        0,
        0.04454000000000001,
        0,
        0,
        0,
        0,
        0.29549000000000003,
        0,
        0,
        0.16364000000000004,
        2.4105399999999997,
        1
      ],
      "name": "Sign"
    },
    {
      "mesh": 2,
      "name": "Sign_0"
    },
    {
      "children": [
        11
      ],
      "matrix": [
        0.13011,
        0,
        0,
        0,
        0,
        0.13011,
        0,
        0,
        0,
        0,
        0.19497000000000003,
        0,
        -0.43808000000000008,
        0.39990000000000009,
        1.2011299999999998,
        1
      ],
      "name": "Containers"
    },
    {
      "mesh": 3,
      "name": "Containers_0"
    },
    {
      "children": [
        13
      ],
      "matrix": [
        0,
        0,
        -0.037010000000000008,
        0,
        -0,
        0.037010000000000008,
        -0,
        0,
        0.037010000000000008,
        0,
        0,
        0,
        -0.0003900000000000001,
        0.39838000000000012,
        1.07636,
        1
      ],
      "name": "Lemon"
    },
    {
      "mesh": 4,
      "name": "Lemon_0"
    },
    {
      "children": [
        15
      ],
      "matrix": [
        0.13011,
        0,
        0,
        0,
        0,
        0.13011,
        0,
        0,
        0,
        0,
        0.19497000000000003,
        0,
        -0.43808000000000008,
        0.39990000000000009,
        1.2011299999999998,
        1
      ],
      "name": "Straws"
    },
    {
      "mesh": 5,
      "name": "Straws_0"
    },
    {
      "children": [
        17
      ],
      "matrix": [
        0.88119000000000014,
        0,
        0,
        0,
        0,
        0.3338600000000001,
        0,
        0,
        0,
        0,
        1,
        0,
        0,
        0.37042000000000008,
        0,
        1
      ],
      "name": "Cuttingboard"
    },
    {
      "mesh": 6,
      "name": "Cuttingboard_0"
    },
    {
      "children": [
        19
      ],
      "matrix": [
        0.13011,
        0,
        0,
        0,
        0,
        0.13011,
        0,
        0,
        0,
        0,
        0.19497000000000003,
        0,
        -0.43808000000000008,
        0.39990000000000009,
        1.2011299999999998,
        1
      ],
      "name": "Cups"
    },
    {
      "mesh": 7,
      "name": "Cups_0"
    }
  ],
  "scene": 0,
  "scenes": [
    {
      "name": "OSG_Scene",
      "nodes": [
        0
      ]
    }
  ]
}

